<svg width="500" height="500" viewBox="0 0 500 500" fill="none" xmlns="http://www.w3.org/2000/svg">
<rect width="500" height="500" rx="250" fill="#CFD1D4"/>
<path d="M126.235 325.008C120.585 325.008 116.272 323.446 113.298 320.323C110.324 317.201 108.837 312.814 108.837 307.163V181.36C108.837 175.709 110.324 171.396 113.298 168.422C116.272 165.3 120.585 163.738 126.235 163.738C131.737 163.738 135.975 165.3 138.949 168.422C141.924 171.396 143.411 175.709 143.411 181.36V234.224H143.857L203.19 172.214C205.717 169.538 208.32 167.53 210.996 166.192C213.822 164.705 217.019 163.961 220.588 163.961C225.792 163.961 229.51 165.3 231.741 167.976C234.12 170.653 235.161 173.776 234.863 177.345C234.566 180.914 232.93 184.259 229.956 187.382L170.4 248.276L170.623 233.332L233.079 300.025C236.499 303.743 238.209 307.535 238.209 311.401C238.358 315.267 237.094 318.539 234.417 321.216C231.889 323.744 228.097 325.008 223.041 325.008C218.729 325.008 215.235 324.115 212.558 322.331C210.03 320.546 207.205 317.944 204.082 314.524L143.857 251.176H143.411V307.163C143.411 312.814 141.924 317.201 138.949 320.323C136.124 323.446 131.886 325.008 126.235 325.008ZM334.153 325.454C316.457 325.454 301.438 322.108 289.096 315.416C276.902 308.724 267.608 299.356 261.214 287.311C254.819 275.266 251.622 261.139 251.622 244.931C251.622 232.439 253.481 221.212 257.199 211.249C261.065 201.137 266.567 192.587 273.705 185.598C280.991 178.46 289.765 172.958 300.025 169.092C310.435 165.225 322.182 163.292 335.268 163.292C343.298 163.292 351.328 164.184 359.358 165.969C367.388 167.753 375.121 170.727 382.556 174.891C385.679 176.675 387.761 178.98 388.801 181.806C389.991 184.482 390.288 187.382 389.694 190.505C389.248 193.479 388.058 196.156 386.125 198.535C384.34 200.765 381.961 202.253 378.987 202.996C376.162 203.591 372.89 202.996 369.173 201.212C364.265 198.535 359.061 196.602 353.559 195.412C348.057 194.074 342.034 193.405 335.491 193.405C324.933 193.405 316.085 195.412 308.948 199.427C301.81 203.293 296.456 209.093 292.888 216.826C289.467 224.409 287.757 233.778 287.757 244.931C287.757 261.734 291.772 274.448 299.802 283.073C307.981 291.698 320.026 296.01 335.937 296.01C341.291 296.01 346.793 295.49 352.443 294.449C358.094 293.408 363.671 291.921 369.173 289.988L362.704 304.04V261.214H342.629C338.168 261.214 334.748 260.098 332.368 257.868C329.989 255.637 328.799 252.589 328.799 248.722C328.799 244.707 329.989 241.659 332.368 239.577C334.748 237.347 338.168 236.231 342.629 236.231H377.649C382.11 236.231 385.456 237.421 387.686 239.8C390.065 242.179 391.255 245.6 391.255 250.061V301.81C391.255 305.676 390.512 308.947 389.024 311.624C387.537 314.301 385.009 316.234 381.441 317.424C374.749 319.803 367.239 321.736 358.912 323.223C350.585 324.71 342.332 325.454 334.153 325.454Z" fill="#0D1B2A"/>
</svg>
